# xmcd
#
# Track frame offsets:
#	150
#	34030
#	57403
#	79205
#	105747
#	132165
#	153732
#	170717
#	198400
#	214615
#	232990
#	249620
#	266767
#	289824
#	314789
#
# Disc length: 4441 seconds
#
# Revision: 0
# Processed by: cddbd v1.5.2PL0 Copyright (c) Steve Scherf et al.
# Submitted via: audiograbber 1.83.01
#
DISCID=e311570f
DTITLE=The Allman Brothers Band - Collected [CD2]
DYEAR=2012
DGENRE=Blues
TTITLE0=Jessica
TTITLE1=Southbound
TTITLE2=Ramblin' Man
TTITLE3=Pony Boy
TTITLE4=Can't Lose What You Never Had
TTITLE5=Win, Lose Or Draw
TTITLE6=Crazy Love
TTITLE7=Just Ain't Easy
TTITLE8=Sail Away
TTITLE9=Need Your Love So Bad
TTITLE10=Angeline
TTITLE11=Straight From The Heart
TTITLE12=Good Clean Fun
TTITLE13=Low Down Dirty Mean
TTITLE14=All Night Train
EXTD=
EXTT0=
EXTT1=
EXTT2=
EXTT3=
EXTT4=
EXTT5=
EXTT6=
EXTT7=
EXTT8=
EXTT9=
EXTT10=
EXTT11=
EXTT12=
EXTT13=
EXTT14=
PLAYORDER=
